<svg width="148" height="99" viewBox="0 0 148 99" fill="none" xmlns="http://www.w3.org/2000/svg">
<path d="M118.778 37.6204C116.731 27.2497 111.148 17.9112 102.981 11.1999C94.8142 4.48869 84.5706 0.82102 74 0.823411C56.3935 0.823411 41.1021 10.8146 33.4868 25.4359C24.5327 26.4036 16.252 30.6461 10.2358 37.3482C4.21963 44.0503 0.892417 52.7393 0.893463 61.7455C0.893463 81.9107 17.2815 98.2988 37.4467 98.2988H116.645C133.46 98.2988 147.107 84.6522 147.107 67.8377C147.107 51.7543 134.618 38.717 118.778 37.6204ZM86.1844 55.6533V80.0222H61.8156V55.6533H43.5389L74 25.1923L104.461 55.6533H86.1844Z" fill="black"/>
</svg>
